<svg viewBox="-2028.496 -3004.976 3778.374 5671.402">
	<g class="d-note" transform="translate(0,0)">
		<ellipse rx="1" ry="1" fill="black">
		</ellipse>
		<text font-size="5" text-anchor="start" fill="black" transform="rotate(0) translate(2,1.75)">A</text>
	</g>
	<g class="d-note" transform="translate(0,737.1)">
		<ellipse rx="1" ry="1" fill="black">
		</ellipse>
		<text font-size="5" text-anchor="start" fill="black" transform="rotate(0) translate(2,1.75)">G</text>
	</g>
	<g class="d-note" transform="translate(-152.26479,737.1)">
		<ellipse rx="1" ry="1" fill="black">
		</ellipse>
		<text font-size="5" text-anchor="start" fill="black" transform="rotate(0) translate(2,1.75)">F</text>
	</g>
	<g class="d-note" transform="translate(22.76598,0.35166)">
		<ellipse rx="1" ry="1" fill="black">
		</ellipse>
		<text font-size="5" text-anchor="start" fill="black" transform="rotate(0) translate(2,1.75)">B</text>
	</g>
	<g class="d-note" transform="translate(608.39978,0.35166)">
		<ellipse rx="1" ry="1" fill="black">
		</ellipse>
		<text font-size="5" text-anchor="start" fill="black" transform="rotate(0) translate(2,1.75)">C</text>
	</g>
	<g class="d-note" transform="translate(632.04137,765.43647)">
		<ellipse rx="1" ry="1" fill="black">
		</ellipse>
		<text font-size="5" text-anchor="start" fill="black" transform="rotate(0) translate(2,1.75)">D</text>
	</g>
	<g class="d-note" transform="translate(-156.64286,878.78237)">
		<ellipse rx="1" ry="1" fill="black">
		</ellipse>
		<text font-size="5" text-anchor="start" fill="black" transform="rotate(0) translate(2,1.75)">E</text>
	</g>
	<g class="d-note" transform="translate(8.75614,453.73525)">
		<ellipse rx="1" ry="1" fill="black">
		</ellipse>
		<text font-size="5" text-anchor="start" fill="black" transform="rotate(0) translate(2,1.75)">H</text>
	</g>
	<g class="d-note" transform="translate(622.40961,453.73525)">
		<ellipse rx="1" ry="1" fill="black">
		</ellipse>
		<text font-size="5" text-anchor="start" fill="black" transform="rotate(0) translate(2,1.75)">H2</text>
	</g>
	<g class="d-note" transform="translate(22.76598,0.35166)">
		<path d="M0,0c0,0,-14.00983,453.3836,-14.00983,453.3836" stroke-width="1" stroke="black">
		</path>
	</g>
	<path d="M8.75614,453.73525C4.37807,595.41763,-45.67944,737.1,-152.26479,737.1" stroke="black" fill="none">
	</path>
	<g class="d-note" transform="translate(-152.26479,737.1)">
		<path d="M0,0c0,0,-4.37807,141.68237,-4.37807,141.68237" stroke-width="1" stroke="black">
		</path>
	</g>
	<path d="M-156.64286,878.78237C136.17404,878.78237,339.36416,774.48038,632.04137,765.43647" stroke="black" fill="none">
	</path>
	<g class="d-note" transform="translate(632.04137,765.43647)">
		<path d="M0,0c0,0,-23.64159,-765.08482,-23.64159,-765.08482" stroke-width="1" stroke="black">
		</path>
	</g>
	<g class="d-note" transform="translate(22.76598,0.35166)">
		<path d="M0,0c0,0,585.6338,0,585.6338,0" stroke-width="1" stroke="black">
		</path>
	</g>
	<g class="d-note" transform="translate(658.75519,0.45277)">
		<ellipse rx="1" ry="1" fill="black">
		</ellipse>
		<text font-size="5" text-anchor="start" fill="black" transform="rotate(0) translate(2,1.75)">I</text>
	</g>
	<g class="d-note" transform="translate(1320.52138,0.45277)">
		<ellipse rx="1" ry="1" fill="black">
		</ellipse>
		<text font-size="5" text-anchor="start" fill="black" transform="rotate(0) translate(2,1.75)">N</text>
	</g>
	<g class="d-note" transform="translate(1346.26148,737.55277)">
		<ellipse rx="1" ry="1" fill="black">
		</ellipse>
		<text font-size="5" text-anchor="start" fill="black" transform="rotate(0) translate(2,1.75)">M</text>
	</g>
	<g class="d-note" transform="translate(1683.76224,737.55277)">
		<ellipse rx="1" ry="1" fill="black">
		</ellipse>
		<text font-size="5" text-anchor="start" fill="black" transform="rotate(0) translate(2,1.75)">L</text>
	</g>
	<g class="d-note" transform="translate(1688.70925,879.21642)">
		<ellipse rx="1" ry="1" fill="black">
		</ellipse>
		<text font-size="5" text-anchor="start" fill="black" transform="rotate(0) translate(2,1.75)">K</text>
	</g>
	<g class="d-note" transform="translate(642.92478,453.77645)">
		<ellipse rx="1" ry="1" fill="black">
		</ellipse>
		<text font-size="5" text-anchor="start" fill="black" transform="rotate(0) translate(2,1.75)">O</text>
	</g>
	<g class="d-note" transform="translate(1336.3518,453.77645)">
		<ellipse rx="1" ry="1" fill="black">
		</ellipse>
		<text font-size="5" text-anchor="start" fill="black" transform="rotate(0) translate(2,1.75)">O2</text>
	</g>
	<g class="d-note" transform="translate(632.04137,765.43647)">
		<path d="M0,0c0,0,26.71382,-764.98371,26.71382,-764.98371" stroke-width="1" stroke="black">
		</path>
	</g>
	<g class="d-note" transform="translate(658.75519,0.45277)">
		<path d="M0,0c0,0,661.7662,0,661.7662,0" stroke-width="1" stroke="black">
		</path>
	</g>
	<g class="d-note" transform="translate(1320.52138,0.45277)">
		<path d="M0,0c0,0,15.83041,453.32368,15.83041,453.32368" stroke-width="1" stroke="black">
		</path>
	</g>
	<path d="M1336.3518,453.77645C1342.79309,638.23105,1515.01186,737.55277,1683.76224,737.55277" stroke="black" fill="none">
	</path>
	<g class="d-note" transform="translate(1683.76224,737.55277)">
		<path d="M0,0c0,0,4.947,141.66365,4.947,141.66365" stroke-width="1" stroke="black">
		</path>
	</g>
	<path d="M632.04137,765.43647C924.67989,775.65564,1065.00925,879.21642,1688.70925,879.21642" stroke="black" fill="none">
	</path>
</svg>
